Patient4_TMGait_0pt7_02_left_22_EMG.mot
version=1
nRows=33
nColumns=33
inDegrees=no
endheader
time	1LAddLong	2LGlutMax	3LGlutMed	4LIliopsoas	5LSemiMemb	6LBicFemLong	7LRecFem	8LVastMed	9LVastLat	10LGasMed	11LTibAnt	12lTibPost	13LPeroneusLong	14LSol	15LExtDigLong	16LFlexDigLong	17RAddLong	18RGlutMax	19RGlutMed	20RIliopsoas	21RSemiMemb	22RBicFemLong	23RRecFem	24RVastMed	25RVastLat	26RGasMed	27RTibAnt	28RTibPost	29RPeroneusLong	30RSol	31RExtDigLong	32RFlexDigLong
25.02	-0.005188	-0.13626	-0.007019	-0.013123	-0.029602	-0.070496	0.14816	0.012207	0.18433	-0.002136	0.11719	0.000458	0.002594	-0.01297	0.289	-0.009613	-0.011749	-0.11307	-0.12375	-0.097198	-0.057831	-0.10147	-0.32562	0.13046	-0.019379	0.006866	-0.47546	0.000305	1.9093	-0.13489	-0.00824	-0.001373
25.021	0.0177	-0.16449	-0.020142	-0.029297	-0.007019	-0.032959	0.15869	0.013733	0.20752	-0.031281	0.14404	-0.005341	0.082703	0.010529	0.37857	-0.003815	0.003204	-0.089569	-0.028839	-0.000305	-0.04837	-0.11292	-0.043335	0.27313	-0.27252	0.006714	0.17425	-0.002747	1.138	0.00824	-0.004272	0.002747
25.022	0.019073	-0.14603	-0.0177	-0.030975	0.014496	0.003052	0.16617	0.012817	0.20432	-0.060883	0.009003	0.003967	0.15289	0.0177	-0.086365	-0.000305	0.004883	-0.080261	0.081787	-0.024261	-0.08667	-0.14557	0.18097	0.11093	-0.49164	0.007477	0.65277	-0.002747	0.13718	-0.1059	-0.000916	0.002289
25.023	0.01297	-0.18265	-0.032043	-0.005951	-0.003204	0.016632	0.18478	0.014801	0.22034	-0.062561	-0.085907	-0.003662	0.1799	0.016937	-0.2356	-0.011444	-0.012054	-0.094604	0.19318	-0.043335	-0.11322	-0.12863	0.1384	0.066071	-0.54672	0.005035	0.61371	-0.004578	-0.78537	-0.037231	-0.002441	0.001678
25.024	0.026398	-0.21332	-0.05127	-0.023499	-0.013733	0.035095	0.16617	0.019531	0.23789	-0.006714	-0.039825	0.00412	0.10605	0.020752	-0.18051	-0.017548	0.001678	-0.14389	-0.20386	0.066681	-0.11124	-0.018768	-0.01236	0.23651	-0.21881	-0.000153	0.39642	-0.009308	-1.1154	0.17761	-0.001831	0.007477
25.025	0.025635	-0.25574	-0.064545	-0.046997	-0.014038	0.003052	0.14343	0.014801	0.23148	0.005188	-0.001373	-0.003052	0.032043	-0.001221	0.14481	-0.018311	0.005646	-0.12512	0.050659	0.009918	-0.10773	0.081482	-0.12543	0.21515	0.06485	0.01297	-0.5751	-0.003204	0.18219	0.032959	-0.000305	0.009918
25.026	0.00061	-0.24521	-0.031433	-0.042419	-0.015564	0.01709	0.14496	0.011597	0.25146	0.006256	-0.081787	-0.007935	0.012817	-0.009003	0.18066	-0.017853	0.027161	-0.13321	0.20996	-0.05661	-0.14587	0.032349	0.12512	0.1062	0.062103	0.015717	-0.79437	-0.00885	-1.4194	0.13107	-0.003662	0.007935
25.027	0.088654	-0.25406	-0.000458	-0.028687	-0.011139	0.01709	0.14694	0.013885	0.26337	-0.044556	-0.084229	-0.011444	0.077057	0.040131	0.002747	-0.02533	0.022888	-0.1207	0.56885	-0.002136	-0.1886	-0.043793	0.080566	-0.034637	-0.005798	0.002136	-0.60059	-0.006409	-0.5423	0.19806	-0.002136	0.005798
25.028	-0.04364	-0.24765	-0.00351	-0.010681	0.00946	0.049591	0.12772	0.008698	0.26855	-0.087738	0.040131	-0.008392	0.098724	0.054626	-0.24292	-0.018768	0.030212	-0.18051	0.77667	0.13397	-0.20248	0.019379	-0.011902	-0.054169	-0.022583	0.007477	-0.49301	-0.010071	0.68481	-0.00061	-0.005188	0.012817
25.029	-0.029449	-0.24933	-0.015411	0.009766	0.005035	0.029755	0.12253	0.011444	0.2684	-0.059509	0.000305	-0.001221	0.069122	0.046997	-0.19211	-0.01236	0.011292	-0.20966	0.56	0.15945	-0.089417	0.075378	-0.007629	0.031128	0.013885	0.001526	-0.40665	-0.003204	0.27145	0.067444	-0.00351	0.001526
25.03	-0.002136	-0.2002	-0.014191	0.075226	0.006409	0.023041	0.11246	0.010376	0.26306	-0.013885	0.006866	-0.00061	-0.00473	-0.020447	-0.06012	-0.028229	0.003967	-0.019836	0.10162	0.19424	-0.009308	0.10254	-0.0737	0.046082	0.006561	-0.004578	-0.19241	-0.001984	-0.36987	0.26413	-0.00412	-0.005341
25.031	-0.002899	-0.24826	-0.020752	0.041962	0.002899	0.019073	0.091858	0.011139	0.26886	0.002136	0.17136	-0.000763	-0.070496	-0.016327	0.18967	-0.019531	-0.007324	0.03479	0.1088	0.16663	-0.05661	0.04837	0.11444	0.016327	-0.025482	-0.012512	-0.081024	-0.006256	-0.80215	0.13565	-0.003052	-0.006714
25.032	0.002289	-0.28381	-0.000916	0.016785	0.022888	-0.012512	0.078888	0.008392	0.26749	-0.003967	0.19241	-0.007172	-0.07309	0.075989	0.14633	-0.017395	-0.033569	0.012054	0.64743	0.085297	-0.062714	0.00473	0.1831	0.028839	-0.055542	-0.002136	0.047455	-0.003204	-0.45136	0.11948	-0.002899	-0.011292
25.033	0.005341	-0.24994	0.011292	0.017395	0.025024	-0.014038	0.084229	0.015869	0.2623	-0.013428	0.12238	-0.008698	-0.013123	0.11658	-0.057983	-0.019226	-0.031891	-0.11917	0.73532	0.16357	-0.072784	0.16129	0.16815	0.093842	-0.083313	0.006409	0.021973	-0.001984	0.059814	0.052185	-0.002136	0.000763
25.034	0.012512	-0.24704	-0.016174	0.035553	-0.001831	0.023499	0.070953	0.015411	0.25085	-0.001831	0.089874	-0.013733	0.088043	-0.011444	-0.37888	-0.032654	-0.011139	-0.12634	0.081787	0.10834	0.036011	0.14648	0.26215	0.037689	-0.12619	0.005493	-0.099792	-0.001221	0.53986	-0.077667	-0.000916	0.002136
25.035	0.005951	-0.28076	-0.05188	0.027161	0.001373	0.036011	0.10086	0.009308	0.24994	0.032043	0.011902	-0.008392	0.095978	-0.064087	-0.39551	-0.026398	-0.001526	-0.13229	0.75958	-0.019073	0.15457	0.11673	0.20752	-0.068665	-0.085449	-0.037384	-0.12711	-0.003967	0.8783	-0.059814	-0.000458	0.004883
25.036	0.00885	-0.26932	-0.065765	0.014648	-0.007629	0.050659	0.09552	0.012207	0.24368	0.057983	-0.20233	0.006714	0.1236	-0.037994	-0.19882	-0.022888	-0.009613	-0.19379	0.090942	-0.09201	0.14816	0.12253	0.23987	-0.15579	-0.14038	-0.025635	0.10178	-0.009308	-1.1081	0.013123	-0.003662	0.000916
25.037	0.007629	-0.24735	-0.059814	0.003052	-0.014191	0.02121	0.11734	0.011597	0.23972	0.051575	-0.16815	-0.001831	0.12772	0.021057	-0.080872	-0.033722	-0.013275	-0.12009	-0.014343	-0.26093	0.066681	0.081329	0.082855	-0.21118	-0.18784	0.011444	0.16846	-0.004272	-1.3788	0.009613	-0.004272	-0.008698
25.038	0.008545	-0.2533	-0.031586	-0.009918	-0.027771	-0.01297	0.1004	0.011292	0.23056	0.046692	0.023346	-0.007782	0.096893	-0.050507	-0.10147	-0.041199	-0.021515	-0.11963	-0.39139	-0.24231	0.046844	0.054932	-0.33066	-0.22614	-0.10712	0.01236	0.14038	-0.002136	0.39047	-0.1236	-0.002289	-0.002136
25.039	0.004578	-0.25406	-0.017395	0.003662	-0.019836	-0.042114	0.10712	0.009918	0.2388	0.051422	0.30426	-0.005188	0.063782	-0.11169	0.001221	-0.036774	-0.029449	-0.11032	-0.36087	-0.11185	-0.005188	-0.1033	-0.39398	-0.14404	0.027008	0.019531	0.16251	0.002747	0.16724	-0.33676	-0.000916	0.009155
25.04	-0.003357	-0.27649	-0.027771	-0.022736	-0.005035	-0.055847	0.1268	0.006409	0.2272	0.018616	0.31662	-0.010223	0.076141	-0.041351	0.13672	-0.025177	-0.031128	-0.039368	0.27847	-0.16174	-0.020905	-0.064697	-0.49194	0.005646	0.050964	0.025787	0.13825	0.00412	-0.53772	-0.42938	-0.004883	0.004425
25.041	-0.001831	-0.26947	-0.042725	-0.007629	0.001984	-0.046387	0.10727	0.004883	0.21896	-0.023499	0.043335	-0.00473	0.12695	0.059967	0.42557	-0.020447	-0.01709	0.006714	0.37628	-0.10757	-0.044708	-0.14297	-0.43427	0.054016	0.006866	0.028229	0.055542	-0.000305	1.1111	-0.2861	-0.009003	0.00946
25.042	0.009155	-0.26184	-0.045471	-0.010223	-0.00885	-0.041199	0.13168	0.007782	0.224	-0.034332	-0.12482	0.002594	0.15396	0.084991	0.52948	-0.010986	0.011749	-0.07019	0.060577	-0.029602	-0.055084	-0.15198	-0.22949	0.032196	0.041809	0.01297	-0.1207	-0.00885	4.1493	-0.074921	-0.00061	0.006256
25.043	-0.000458	-0.27023	-0.068207	-0.002136	-0.009766	-0.044556	0.11612	0.009308	0.21668	0.00061	0.083771	-0.001984	0.066223	0.037079	-0.25345	-0.015411	0.009003	-0.053253	-0.04715	-0.054016	-0.060577	-0.15625	-0.19241	0.020599	0.39825	-0.004578	0.73212	-0.00824	-0.5275	-0.16632	-0.009155	-0.00061
25.044	0.001526	-0.21454	-0.066681	0.008392	-0.012665	-0.059967	0.096741	0.007019	0.20752	0.011902	0.077972	0.003052	-0.036774	-0.03952	-0.26474	-0.011444	-0.016327	-0.013123	-0.35111	-0.035706	-0.055237	-0.082855	-0.11917	0.15915	0.57587	0.004578	0.95688	-0.003815	-3.354	-0.2211	-0.005493	0.007172
25.045	0.004578	-0.24002	-0.067749	-0.013275	-0.00885	-0.061493	0.076294	0.010223	0.21668	0.024719	0.16525	0.002441	-0.16235	-0.027313	0.30029	-0.014343	-0.024567	-0.034637	-0.30182	0.019073	-0.04776	-0.092316	-0.084076	0.24109	0.52261	-0.003967	0.64697	-0.009155	-2.1762	-0.1564	-0.009308	-0.000458
25.046	0.001678	-0.224	-0.049133	-0.014343	-0.023956	-0.047913	0.055695	0.007782	0.2095	-0.014801	-0.37933	-0.005035	-0.097351	-0.034943	0.15747	-0.001831	-0.007629	0.016479	-0.12741	0.046082	-0.03952	-0.096741	-0.09613	-0.14114	0.36346	-0.014648	0.38116	-0.007324	1.3254	0.15121	-0.001984	-0.003967
25.047	-0.00351	-0.20798	-0.036469	-0.037994	-0.038757	-0.035248	0.043182	0.011444	0.19928	-0.068054	-0.2742	0.009308	0.034027	-0.005646	0.090179	0.009308	-0.023346	0.056763	0.065308	-0.002136	-0.031281	-0.074768	-0.35339	-0.20111	0.22156	-0.002747	-0.75455	-0.002899	1.5544	-0.056152	-0.002136	-0.002136
25.048	-0.005646	-0.22415	-0.054169	-0.035095	-0.040436	-0.010681	0.005646	0.011749	0.1976	-0.11688	-0.18753	0.015869	0.13596	0.13046	-0.13031	0.01358	-0.019379	0.077515	-0.031891	-0.055542	-0.042725	-0.003052	-0.25024	-0.19348	-0.084839	0.004425	-1.3614	0.000916	0.17868	-0.19119	-0.003662	0.013275
25.049	-0.001068	-0.24017	-0.067596	0.010223	-0.076599	-0.064697	-0.006866	0.008698	0.17883	-0.10193	-0.12283	0.008545	0.18326	0.1741	0.12024	0.015106	-0.009766	0.017853	-0.59219	-0.12192	-0.053406	0.010529	0.057373	-0.17914	-0.43869	0.002441	-0.81055	-0.004578	-0.17425	0.14069	-0.002747	0.003815
25.05	0.006866	-0.21408	-0.074005	0.041199	-0.052338	-0.14053	-0.007782	0.006104	0.18768	-0.052795	0.015869	0.015564	0.075226	0.088806	0.1355	0.010529	0.019379	0.069122	-0.072784	-0.13229	-0.070953	-0.002594	0.072937	-0.22125	-0.81787	0.005646	-0.47852	0.00412	-0.54398	0.25207	-0.000305	-0.00473
25.051	0.012054	-0.24887	-0.060883	0.044708	0.039673	-0.12741	-0.032806	0.006714	0.16678	-0.021515	0.024414	0.013275	0.003204	-0.11673	0.29205	0.005493	0.024872	0.043488	0.2655	-0.1384	-0.039368	0.15106	-0.015564	0.026245	-0.54642	0.009003	-0.30853	-0.006409	-0.23529	0.1712	-0.003204	-0.007172
25.052	0.014038	-0.23743	-0.059509	0.035706	0.030212	-0.065918	-0.037079	0.003967	0.17273	-0.028687	-0.011444	-0.001984	0.056152	-0.24612	-0.21088	-0.002747	0.016022	0.067749	0.27939	-0.16632	-0.040741	0.06012	-0.092163	0.20874	-0.13062	0.001831	-0.006714	-0.013733	-0.3865	0.15213	-0.003052	-0.011597
